<?xml version="1.0" standalone="no"?>
<!DOCTYPE svg PUBLIC "-//W3C//DTD SVG 20010904//EN"
 "http://www.w3.org/TR/2001/REC-SVG-20010904/DTD/svg10.dtd">
<svg version="1.0" xmlns="http://www.w3.org/2000/svg"
 width="3690.000000pt" height="3690.000000pt" viewBox="0 0 3690.000000 3690.000000"
 preserveAspectRatio="xMidYMid meet">
<metadata>
Created by potrace 1.11, written by Peter Selinger 2001-2013
</metadata>
<g transform="translate(0.000000,3690.000000) scale(0.100000,-0.100000)"
fill="#000000" stroke="none">
<path d="M17978 35045 c-2 -2 -70 -6 -153 -10 -82 -3 -168 -8 -190 -10 -22 -2
-85 -7 -140 -11 -138 -9 -171 -11 -240 -18 -33 -3 -82 -8 -110 -11 -27 -2 -70
-7 -95 -10 -25 -3 -63 -7 -85 -10 -133 -15 -223 -26 -245 -30 -14 -2 -45 -7
-70 -10 -25 -3 -56 -8 -70 -10 -14 -2 -43 -6 -65 -10 -23 -3 -50 -7 -60 -9
-19 -3 -66 -11 -140 -22 -29 -5 -180 -32 -220 -40 -11 -2 -33 -6 -50 -9 -25
-3 -85 -15 -300 -61 -610 -127 -1261 -322 -1910 -568 -82 -32 -169 -66 -192
-77 -24 -10 -45 -19 -47 -19 -5 0 -264 -110 -336 -142 -235 -106 -388 -179
-590 -282 -218 -110 -494 -259 -643 -348 -55 -32 -101 -58 -103 -58 -2 0 -28
-15 -57 -34 -28 -18 -113 -71 -187 -116 -272 -168 -627 -411 -905 -619 -155
-116 -462 -357 -485 -381 -8 -8 -51 -44 -95 -80 -44 -35 -82 -67 -85 -71 -3
-3 -45 -41 -95 -83 -319 -275 -800 -747 -1070 -1051 -38 -43 -79 -88 -90 -99
-134 -139 -570 -682 -777 -966 -159 -219 -412 -594 -528 -785 -40 -66 -83
-136 -95 -155 -48 -77 -115 -191 -115 -194 0 -3 -19 -37 -43 -78 -144 -244
-398 -742 -542 -1063 -68 -151 -205 -479 -205 -489 0 -7 -4 -16 -8 -21 -4 -6
-18 -35 -29 -65 -12 -30 -42 -108 -68 -174 -55 -142 -239 -690 -291 -866 -37
-128 -151 -549 -158 -585 -2 -11 -9 -38 -14 -60 -6 -22 -13 -51 -16 -65 -2
-14 -7 -32 -10 -40 -3 -8 -7 -28 -10 -45 -6 -36 -13 -70 -20 -93 -3 -9 -8 -30
-11 -47 -7 -45 -14 -75 -19 -93 -3 -9 -7 -34 -11 -56 -3 -21 -7 -41 -9 -45 -2
-3 -7 -22 -10 -41 -3 -19 -14 -82 -25 -140 -18 -95 -47 -266 -56 -330 -4 -30
-16 -109 -20 -130 -5 -29 -15 -95 -20 -140 -3 -25 -8 -56 -10 -70 -2 -14 -7
-50 -10 -80 -3 -30 -8 -71 -10 -90 -2 -19 -7 -60 -10 -90 -3 -30 -8 -73 -10
-95 -6 -54 -15 -149 -20 -210 -2 -27 -7 -81 -10 -120 -11 -137 -22 -339 -30
-570 -5 -129 -5 -758 0 -860 14 -300 17 -364 20 -395 2 -19 6 -84 10 -145 3
-60 8 -121 10 -135 2 -14 7 -59 10 -100 3 -41 8 -82 10 -90 2 -8 7 -49 10 -90
3 -41 7 -86 9 -100 7 -49 19 -145 21 -170 5 -40 16 -123 20 -150 9 -48 15 -87
19 -121 3 -19 12 -79 21 -134 9 -55 19 -113 21 -130 4 -26 9 -52 29 -155 4
-21 18 -95 41 -215 30 -157 129 -574 185 -775 5 -19 11 -42 13 -50 86 -327
326 -1050 431 -1295 7 -16 36 -88 65 -160 165 -405 448 -996 637 -1329 25 -45
58 -103 73 -131 111 -203 376 -629 545 -877 66 -98 312 -443 334 -470 11 -13
140 -181 176 -229 43 -57 225 -280 334 -409 326 -385 745 -818 1126 -1165 60
-55 119 -109 131 -120 18 -18 89 -79 164 -143 14 -11 39 -33 55 -47 17 -14 62
-52 100 -83 39 -31 72 -59 75 -62 15 -15 109 -90 113 -90 5 0 90 140 143 235
24 43 94 165 276 480 23 39 52 87 65 107 12 21 23 40 23 43 0 3 20 38 43 78
36 59 137 234 227 391 9 17 49 85 87 151 39 66 164 282 278 480 318 552 581
1006 604 1045 11 19 24 41 28 49 3 8 35 64 71 125 36 61 72 125 82 141 9 17
86 149 170 295 85 146 162 280 171 298 10 18 22 38 27 45 5 7 22 35 36 62 15
28 32 59 39 70 39 64 64 106 90 155 16 30 36 62 43 71 8 8 14 18 14 20 0 5 30
57 255 449 65 113 123 214 129 225 6 11 18 31 27 45 16 26 269 462 309 535 12
22 46 81 75 130 29 50 62 106 73 125 11 19 77 134 147 255 70 121 137 238 150
260 12 22 43 76 70 120 26 44 51 89 57 100 5 11 19 37 31 57 12 20 49 83 82
140 33 57 64 111 70 120 5 9 17 29 26 45 8 15 48 84 88 153 41 69 84 143 97
165 13 22 29 51 36 65 7 14 22 41 34 60 11 19 65 112 119 205 211 367 249 431
266 460 11 17 22 37 26 45 4 8 32 58 63 110 31 52 59 102 63 110 4 8 17 31 28
50 12 19 82 141 157 270 141 246 239 413 327 565 29 50 64 110 77 135 14 25
65 113 113 195 48 83 97 169 110 192 13 22 35 59 49 82 14 22 26 43 26 46 0 2
17 33 38 67 21 35 50 83 64 108 14 25 119 207 233 405 114 198 217 376 228
395 10 19 52 91 92 160 40 69 82 141 93 160 10 19 49 86 86 149 36 62 66 115
66 118 0 2 11 20 24 41 33 52 140 236 141 242 0 3 8 16 17 30 27 42 308 531
308 536 0 3 8 17 19 32 10 15 131 223 269 462 138 239 259 451 271 470 11 19
48 84 83 145 35 60 75 130 90 155 15 25 32 54 38 65 5 11 26 47 45 80 19 33
50 86 67 118 18 31 35 57 38 57 3 0 53 -85 112 -188 58 -103 164 -286 233
-407 70 -121 135 -233 145 -250 9 -16 50 -86 90 -155 40 -69 122 -210 182
-315 60 -104 113 -197 118 -205 24 -39 180 -310 199 -345 12 -22 26 -47 31
-55 31 -48 130 -223 130 -231 0 -5 5 -9 10 -9 6 0 10 -5 10 -11 0 -6 23 -49
51 -97 29 -48 63 -107 77 -132 14 -25 81 -142 150 -260 68 -118 148 -258 179
-310 30 -52 58 -102 63 -110 22 -37 177 -305 190 -329 8 -14 27 -46 41 -71 15
-25 36 -62 48 -82 40 -71 58 -103 103 -178 24 -41 47 -82 51 -90 4 -8 15 -28
26 -45 10 -16 96 -165 191 -330 95 -165 189 -327 208 -360 19 -33 46 -80 60
-105 14 -25 62 -108 107 -185 45 -77 136 -234 202 -350 67 -115 166 -287 220
-381 55 -94 103 -177 106 -185 4 -8 15 -27 26 -44 10 -16 27 -46 38 -65 51
-88 179 -309 219 -377 24 -41 44 -76 44 -78 0 -1 61 -107 135 -235 74 -127
135 -233 135 -235 0 -2 18 -33 40 -69 22 -36 40 -68 40 -71 0 -3 8 -18 19 -33
10 -15 65 -108 121 -207 57 -99 120 -208 141 -242 22 -34 39 -65 39 -68 0 -3
19 -38 43 -78 24 -39 89 -151 144 -247 56 -96 167 -290 248 -430 82 -140 156
-270 166 -287 33 -57 54 -93 184 -318 70 -121 141 -245 158 -275 17 -30 48
-84 69 -119 21 -34 38 -67 38 -72 0 -5 5 -9 10 -9 6 0 10 -5 10 -10 0 -6 37
-75 83 -153 46 -79 86 -150 90 -157 4 -8 16 -28 26 -45 10 -16 87 -149 171
-295 83 -146 155 -269 160 -275 4 -5 22 -37 40 -70 55 -100 68 -122 94 -164
15 -22 26 -43 26 -46 0 -3 10 -22 23 -43 33 -51 89 -148 119 -202 14 -25 90
-157 170 -295 80 -137 156 -270 170 -295 14 -25 74 -128 133 -230 59 -102 117
-203 130 -225 12 -22 63 -110 112 -195 139 -239 204 -352 226 -390 11 -19 28
-48 38 -65 11 -16 22 -37 26 -45 4 -8 70 -123 146 -255 77 -132 151 -260 165
-285 14 -25 36 -62 49 -82 12 -21 23 -39 23 -41 0 -3 42 -76 93 -163 51 -88
97 -166 101 -174 4 -8 12 -24 19 -36 7 -11 45 -77 86 -147 41 -70 78 -130 82
-133 4 -2 18 4 31 15 13 10 79 65 148 122 99 82 312 266 376 324 7 5 54 48
105 95 291 264 672 652 939 955 29 33 65 74 79 90 23 25 217 256 270 320 221
268 493 638 715 971 115 171 102 152 197 304 40 63 85 134 101 158 15 24 28
44 28 46 0 2 25 44 54 94 64 106 165 283 226 397 24 44 56 104 72 133 108 196
335 673 451 947 72 171 121 289 123 295 0 3 6 19 13 35 13 35 58 151 94 245
14 36 46 126 72 200 26 74 52 151 60 170 22 61 146 462 171 555 1 6 19 69 39
140 29 104 92 348 110 425 40 174 86 383 90 410 3 19 10 53 15 75 5 22 11 56
15 75 3 19 8 46 10 60 10 48 13 68 35 196 11 71 23 143 26 159 3 17 7 43 9 58
6 39 15 107 20 137 4 26 10 74 19 145 3 22 10 76 15 120 6 44 13 107 16 140 3
33 8 74 10 90 2 17 7 66 10 110 4 44 8 91 10 105 2 14 7 75 10 135 4 61 8 126
10 145 27 284 27 1303 0 1630 -1 19 -6 78 -9 130 -4 52 -9 113 -11 135 -2 22
-7 69 -10 105 -6 78 -14 152 -19 200 -3 19 -7 64 -11 100 -3 36 -9 79 -12 95
-3 17 -7 46 -8 65 -3 35 -14 118 -21 154 -2 11 -8 54 -14 96 -6 42 -13 87 -15
100 -5 26 -14 83 -19 127 -4 27 -21 121 -31 173 -3 14 -8 39 -10 55 -24 138
-127 612 -167 765 -5 19 -10 43 -13 53 -2 10 -14 52 -25 95 -12 42 -23 86 -26
96 -7 34 -74 269 -116 401 -22 72 -41 135 -43 140 -1 6 -4 17 -8 25 -3 8 -31
92 -62 185 -58 171 -199 556 -231 630 -10 22 -18 42 -19 45 -1 3 -6 16 -12 30
-6 14 -21 50 -33 80 -12 30 -27 66 -33 80 -6 14 -11 27 -12 30 -5 15 -57 132
-94 213 -17 37 -31 69 -31 71 0 8 -128 272 -225 466 -376 750 -870 1528 -1369
2156 -23 28 -54 68 -71 89 -16 21 -34 43 -40 49 -5 6 -39 47 -75 91 -36 44
-75 91 -86 105 -119 140 -170 198 -239 275 -44 49 -84 95 -90 101 -195 224
-718 740 -995 980 -25 21 -47 42 -50 45 -41 46 -591 492 -720 584 -30 22 -57
42 -60 45 -3 3 -30 23 -60 45 -30 22 -57 42 -60 45 -3 3 -43 33 -90 65 -47 33
-91 65 -98 72 -7 7 -17 13 -21 13 -7 0 -59 37 -98 70 -7 5 -14 10 -17 10 -4 0
-140 90 -161 107 -39 32 -610 383 -622 383 -4 0 -14 6 -22 14 -9 7 -45 29 -81
48 -36 20 -101 56 -145 80 -44 25 -111 62 -150 83 -75 41 -582 295 -589 295
-2 0 -46 20 -98 44 -220 103 -460 205 -635 271 -34 13 -77 30 -95 39 -39 17
-369 137 -478 173 -41 13 -84 28 -95 33 -19 8 -161 53 -177 56 -5 1 -10 3 -13
4 -3 1 -8 3 -12 5 -5 1 -15 4 -23 8 -34 13 -464 136 -530 152 -8 1 -44 11 -80
20 -36 9 -72 18 -80 20 -8 2 -80 19 -160 39 -206 49 -616 135 -725 150 -23 4
-52 9 -65 11 -14 3 -54 10 -90 16 -36 5 -77 12 -92 14 -62 11 -85 14 -128 20
-25 3 -56 8 -70 10 -14 2 -47 7 -75 10 -27 3 -61 8 -75 10 -24 3 -75 10 -165
20 -50 6 -126 14 -185 20 -25 2 -72 7 -105 10 -181 17 -221 20 -390 30 -66 3
-142 9 -170 11 -57 6 -1102 14 -1107 9z"/>
<path d="M18404 23107 c-109 -189 -255 -444 -263 -457 -12 -19 -167 -288 -202
-349 -14 -25 -59 -102 -99 -171 -74 -125 -89 -152 -146 -251 -60 -107 -302
-525 -333 -577 -17 -29 -31 -54 -31 -56 0 -2 -18 -33 -40 -67 -22 -35 -44 -73
-49 -85 -5 -12 -38 -70 -74 -130 -35 -60 -126 -217 -202 -349 -76 -132 -162
-280 -191 -330 -61 -105 -459 -795 -485 -842 -10 -17 -29 -50 -43 -72 -15 -22
-26 -43 -26 -46 0 -2 -17 -33 -38 -67 -21 -35 -52 -88 -69 -118 -28 -50 -154
-269 -415 -720 -53 -91 -105 -181 -116 -200 -11 -19 -61 -107 -112 -195 -89
-154 -221 -382 -262 -455 -11 -19 -44 -75 -73 -125 -29 -49 -62 -107 -74 -127
-23 -42 -41 -73 -93 -163 -20 -33 -69 -118 -110 -190 -41 -71 -142 -247 -225
-390 -83 -143 -160 -276 -170 -295 -11 -19 -34 -58 -50 -86 -17 -27 -41 -70
-55 -95 -14 -24 -89 -154 -167 -288 -77 -134 -141 -246 -141 -248 0 -3 -8 -17
-19 -31 -10 -15 -29 -47 -43 -72 -35 -63 -60 -106 -97 -168 -17 -29 -31 -55
-31 -58 0 -3 -8 -17 -19 -32 -16 -23 -204 -347 -279 -482 -14 -25 -71 -124
-127 -220 -56 -96 -172 -296 -257 -445 -86 -148 -165 -286 -176 -305 -12 -19
-34 -57 -50 -85 -16 -27 -39 -68 -51 -90 -13 -22 -75 -130 -139 -240 -63 -110
-165 -285 -225 -390 -60 -104 -118 -203 -127 -220 -10 -16 -43 -75 -75 -130
-31 -55 -72 -125 -90 -155 -18 -30 -104 -179 -190 -330 -87 -151 -188 -327
-225 -390 -37 -63 -77 -132 -89 -152 -32 -57 -53 -93 -116 -203 -53 -91 -362
-625 -406 -702 -11 -18 -27 -48 -38 -66 -19 -35 -71 -125 -316 -547 -81 -140
-159 -275 -173 -300 -14 -25 -55 -97 -92 -160 -74 -126 -248 -428 -288 -500
-14 -25 -67 -116 -119 -204 -51 -87 -93 -160 -93 -162 0 -1 -27 -48 -60 -104
-33 -56 -60 -105 -60 -110 0 -5 -3 -10 -7 -12 -5 -1 -15 -16 -24 -33 -14 -28
-228 -402 -249 -435 -5 -8 -35 -60 -67 -115 -32 -55 -63 -109 -70 -120 -7 -11
-16 -27 -20 -35 -4 -8 -33 -59 -65 -112 -31 -54 -70 -120 -85 -148 -15 -28
-33 -59 -38 -68 -55 -92 -82 -139 -88 -152 -4 -8 -15 -28 -26 -45 -10 -16 -59
-102 -109 -190 -51 -88 -96 -167 -101 -175 -9 -14 -214 -368 -270 -464 -22
-39 -78 -137 -123 -216 -11 -19 -41 -71 -67 -115 -57 -98 -44 -76 -177 -307
-62 -106 -194 -335 -294 -508 -219 -378 -216 -373 -248 -430 -14 -25 -45 -78
-69 -118 -24 -41 -43 -78 -43 -83 0 -5 -4 -9 -10 -9 -5 0 -10 -4 -10 -10 0 -5
-22 -47 -48 -92 -27 -46 -86 -148 -132 -228 -155 -269 -211 -365 -220 -380 -6
-8 -13 -21 -17 -29 -3 -8 -35 -64 -71 -125 -69 -118 -236 -407 -269 -466 -11
-19 -34 -59 -52 -88 -17 -29 -31 -56 -31 -59 0 -4 -6 -14 -14 -22 -7 -9 -27
-41 -43 -71 -33 -61 -48 -86 -140 -243 -35 -59 -63 -110 -63 -112 0 -3 -11
-23 -25 -46 -22 -35 -212 -361 -267 -459 -11 -19 -35 -60 -54 -91 -19 -31 -34
-59 -34 -61 0 -3 -25 -47 -56 -97 -30 -51 -54 -95 -51 -97 2 -2 5546 -3 12321
-2 l12316 3 -78 135 c-43 74 -150 259 -237 410 -87 151 -187 324 -222 383 -34
59 -63 109 -63 111 0 3 -166 290 -200 346 -5 8 -46 80 -92 159 -46 80 -90 156
-98 170 -8 15 -42 73 -74 131 -33 58 -67 116 -76 130 -10 14 -29 47 -45 75
-25 46 -179 314 -356 618 -41 71 -83 145 -95 165 -11 20 -80 141 -153 267 -74
127 -219 378 -323 559 -105 181 -199 343 -209 360 -10 17 -24 42 -32 56 -8 14
-46 81 -86 148 -39 68 -71 126 -71 128 0 3 -9 17 -19 32 -10 15 -81 135 -156
267 -76 132 -178 310 -228 395 -49 85 -98 169 -107 185 -40 71 -260 453 -343
595 -49 85 -97 169 -107 185 -9 17 -43 75 -75 130 -32 55 -110 190 -173 300
-63 110 -161 279 -217 375 -56 96 -104 182 -108 190 -4 8 -16 29 -27 45 -11
17 -23 36 -27 44 -7 15 -126 224 -143 251 -5 8 -47 80 -93 160 -46 80 -125
217 -177 305 -51 88 -104 180 -118 205 -13 25 -39 70 -57 100 -40 68 -288 498
-323 560 -13 25 -28 50 -32 55 -4 6 -19 30 -32 55 -14 25 -57 99 -95 165 -39
66 -132 228 -208 360 -76 132 -166 288 -201 348 -35 59 -64 109 -64 111 0 5
-40 73 -85 146 -20 33 -87 149 -143 250 -14 24 -49 84 -78 133 -30 49 -54 91
-54 93 0 1 -62 110 -138 241 -76 131 -141 245 -145 253 -4 8 -16 29 -27 45
-11 17 -23 37 -27 45 -4 8 -59 104 -123 215 -64 110 -142 245 -174 300 -31 55
-61 107 -66 115 -26 41 -210 362 -210 365 0 3 -16 29 -35 59 -19 30 -35 58
-35 61 0 3 -11 22 -24 43 -19 30 -230 395 -314 542 -33 59 -238 413 -261 450
-11 19 -24 42 -28 50 -4 8 -49 87 -100 174 -51 87 -93 161 -93 163 0 3 -8 17
-18 31 -11 15 -33 52 -49 82 -27 49 -230 402 -253 440 -24 40 -106 181 -133
230 -17 30 -48 84 -69 119 -21 34 -38 64 -38 66 0 2 -37 65 -82 141 -80 137
-114 195 -141 244 -17 32 -233 405 -306 530 -30 52 -64 111 -74 130 -11 19
-34 60 -52 90 -18 30 -135 233 -260 450 -125 217 -236 409 -246 425 -11 17
-22 37 -26 45 -4 8 -50 89 -103 180 -53 91 -117 201 -142 245 -25 44 -121 211
-214 370 -92 160 -175 304 -184 320 -10 17 -43 75 -75 130 -64 110 -69 119
-144 250 -28 50 -55 97 -60 105 -5 8 -46 78 -91 155 -44 77 -85 147 -90 155
-32 54 -138 238 -143 250 -4 8 -15 29 -26 45 -10 17 -27 46 -38 65 -11 19 -46
80 -78 135 -32 55 -125 217 -208 360 -82 143 -159 276 -171 296 -12 20 -83
144 -159 275 -76 132 -142 246 -148 254 -20 33 -176 306 -182 320 -4 8 -16 29
-26 45 -10 17 -43 73 -73 125 -30 52 -106 183 -168 290 -146 253 -148 257
-178 310 -30 54 -71 120 -75 120 -1 0 -21 -33 -43 -73z"/>
</g>
</svg>
